<svg width="67" height="64" viewBox="0 0 67 64" fill="none" xmlns="http://www.w3.org/2000/svg">
<path d="M18.8195 63.8201L11.4076 51.2959C11.1423 50.846 10.8239 50.5581 10.3286 50.5581C9.83326 50.5581 9.49716 50.846 9.23182 51.2959L1.83765 63.8201H4.40261L10.2401 53.7791L13.1058 58.6736H9.16106L8.0997 60.5271H14.1849L16.113 63.8201H18.8195Z" fill="#DAA95A"/>
<path d="M30.6136 58.0438C30.6136 60.671 29.4638 61.7507 25.9259 61.7507C22.388 61.7507 21.2382 60.671 21.2382 58.0438V50.738H18.9209V58.0438C18.9209 62.0926 20.9021 64 25.8552 64C30.8436 64 32.8071 62.0926 32.8071 58.0438V50.738H30.6136V58.0438Z" fill="#DAA95A"/>
<path d="M41.363 63.2622C41.6283 63.7121 41.9644 64 42.4597 64C42.9196 64 43.2734 63.7121 43.5388 63.2622L50.9506 50.738H48.368L42.5482 60.815L36.7107 50.738H33.9688L41.363 63.2622Z" fill="#DAA95A"/>
<path d="M61.3742 60.1852C64.3461 60.1852 66.0796 58.2418 66.0796 55.4166C66.0796 52.5555 64.3461 50.738 61.3742 50.738H52.335V63.8201H54.5638V53.0233H61.3742C62.9486 53.0233 63.8861 53.977 63.8861 55.4886C63.8861 56.9641 62.9486 57.9718 61.3742 57.9718H56.2089V60.1852H61.3742Z" fill="#DAA95A"/>
<path d="M3.20325 16.4678L0 20.6729L3.20325 24.878C19.9295 46.8351 47.0473 46.8351 63.7735 24.878L66.9767 20.6729L63.7735 16.4678C47.0473 -5.48927 19.9295 -5.48927 3.20325 16.4678Z" fill="#DAA95A"/>
<path d="M33.8148 38.2867C29.1896 38.2867 24.8412 36.4546 21.571 33.1279C18.3008 29.8013 16.4997 25.3779 16.4997 20.6729C16.4997 15.968 18.3008 11.5445 21.571 8.21787C24.8412 4.89125 29.1896 3.05916 33.8148 3.05916C34.4736 3.05916 35.1373 3.09726 35.7872 3.17238C35.9329 3.18941 36.0373 3.32264 36.0205 3.47089C36.0038 3.61914 35.8728 3.72528 35.7271 3.70825C35.0969 3.63513 34.4529 3.59908 33.8148 3.59908C29.3314 3.59908 25.1159 5.3751 21.9452 8.60054C18.7744 11.826 17.0285 16.1142 17.0285 20.6749C17.0285 25.2356 18.7744 29.5239 21.9452 32.7493C25.1159 35.9748 29.3314 37.7507 33.8148 37.7507C38.2982 37.7507 42.5137 35.9748 45.6844 32.7493C48.8552 29.5239 50.6011 25.2356 50.6011 20.6749C50.6011 16.9647 49.4509 13.4367 47.2757 10.4717C47.1881 10.3525 47.2127 10.1832 47.3299 10.0951C47.4471 10.0059 47.6135 10.0309 47.7001 10.1501C49.9443 13.2083 51.1299 16.8485 51.1299 20.6759C51.1299 25.3809 49.3288 29.8043 46.0586 33.1309C42.7884 36.4576 38.44 38.2896 33.8148 38.2896V38.2867ZM30.5692 36.127C30.5505 36.127 30.5318 36.125 30.5131 36.121C28.91 35.7674 27.3778 35.1594 25.9568 34.313C24.5556 33.4775 23.2952 32.4298 22.211 31.1977C19.958 28.6384 18.609 25.471 18.3106 22.0382C17.9443 17.8251 19.2136 13.7202 21.8831 10.4777C24.5527 7.23521 28.3034 5.24486 32.4451 4.87223C36.5867 4.4996 40.6221 5.79078 43.8096 8.50536C46.9971 11.221 48.9537 15.0364 49.32 19.2495C49.447 20.716 49.3761 22.1855 49.1073 23.6179C49.0797 23.7641 48.9409 23.8603 48.7971 23.8323C48.6533 23.8042 48.5588 23.6629 48.5864 23.5167C48.8454 22.1334 48.9153 20.713 48.7922 19.2966C48.4387 15.2267 46.548 11.5415 43.4698 8.91807C40.3907 6.29464 36.4922 5.04854 32.4923 5.40814C28.4915 5.76775 24.8687 7.69098 22.2898 10.8223C19.7109 13.9546 18.4859 17.9202 18.8394 21.9891C19.1279 25.3047 20.4307 28.3639 22.6069 30.8371C24.7112 33.2281 27.5599 34.917 30.6263 35.5931C30.7691 35.6241 30.8597 35.7684 30.8292 35.9137C30.8026 36.0399 30.6923 36.126 30.5702 36.126L30.5692 36.127ZM35.3096 34.3801C35.1767 34.3801 35.0614 34.2779 35.0467 34.1406C35.0299 33.9924 35.1353 33.8592 35.28 33.8432C38.7797 33.4445 41.917 31.6835 44.1148 28.8848C46.3127 26.0861 47.3072 22.5842 46.9153 19.0242C46.5234 15.4641 44.7933 12.2727 42.041 10.037C39.2898 7.80118 35.8472 6.78948 32.3476 7.18815C28.8479 7.58682 25.7107 9.3468 23.5128 12.1465C21.3149 14.9452 20.3204 18.4472 20.7123 22.0072C20.729 22.1554 20.6237 22.2887 20.4789 22.3047C20.3332 22.3217 20.2022 22.2145 20.1865 22.0673C19.7788 18.364 20.8137 14.7219 23.1002 11.81C25.3867 8.89805 28.65 7.06694 32.2905 6.65224C35.9309 6.23854 39.5113 7.2903 42.3739 9.61623C45.2364 11.9422 47.0364 15.2618 47.4441 18.965C47.8518 22.6683 46.8169 26.3104 44.5304 29.2223C42.2439 32.1342 38.9806 33.9654 35.3401 34.3801C35.3303 34.3811 35.3204 34.3821 35.3106 34.3821L35.3096 34.3801ZM33.6582 33.0338C30.5771 33.0338 27.6555 31.8668 25.3887 29.7192C23.5886 28.0143 22.3528 25.8266 21.8152 23.3945C21.7827 23.2493 21.8723 23.105 22.0151 23.073C22.1579 23.0399 22.2996 23.1311 22.3312 23.2763C22.8452 25.6022 24.0268 27.6938 25.7491 29.3245C28.0208 31.4761 30.9798 32.5991 34.0826 32.4869C37.1845 32.3747 40.0588 31.0394 42.174 28.7285C44.2891 26.4176 45.394 23.4066 45.2827 20.2512C45.1724 17.0949 43.8598 14.1719 41.5881 12.0203C39.3163 9.86865 36.3583 8.74477 33.2545 8.85796C30.1527 8.97015 27.2783 10.3054 25.1632 12.6163C24.6492 13.1773 24.1893 13.7883 23.7944 14.4334C23.7176 14.5596 23.5542 14.5987 23.4291 14.5195C23.305 14.4414 23.2666 14.2751 23.3444 14.1479C23.757 13.4738 24.2385 12.8347 24.7752 12.2477C26.9868 9.83159 29.9912 8.43524 33.2358 8.31804C36.4794 8.20084 39.5743 9.37485 41.9495 11.6246C44.3246 13.8744 45.6972 16.9306 45.8125 20.2312C45.9277 23.5307 44.7736 26.6791 42.5619 29.0952C40.3503 31.5112 37.346 32.9076 34.1013 33.0248C33.9536 33.0298 33.805 33.0328 33.6572 33.0328L33.6582 33.0338ZM33.8256 31.3008C32.7464 31.3008 31.6612 31.1286 30.6047 30.782C27.9469 29.9095 25.7825 28.0373 24.5103 25.5091C23.4842 23.4716 23.1337 21.2048 23.4961 18.953C23.8515 16.7463 24.854 14.7449 26.396 13.1663C26.4994 13.0611 26.6668 13.0601 26.7702 13.1652C26.8736 13.2704 26.8746 13.4407 26.7712 13.5459C25.3069 15.0444 24.3557 16.9446 24.018 19.0401C23.6743 21.1778 24.0071 23.3304 24.981 25.2637C26.1892 27.6637 28.2443 29.4417 30.7671 30.2691C33.29 31.0975 35.9782 30.8761 38.3376 29.6471C40.6969 28.418 42.4448 26.3275 43.2581 23.7612C44.0725 21.1948 43.8549 18.4602 42.6466 16.0601C40.8751 12.5422 37.2239 10.3885 33.3392 10.5759C33.1915 10.5829 33.0694 10.4677 33.0625 10.3194C33.0556 10.1712 33.1688 10.045 33.3146 10.038C35.2938 9.94282 37.2534 10.4196 38.9816 11.4173C40.755 12.441 42.1848 13.9616 43.1183 15.8147C45.7455 21.0335 43.7091 27.4544 38.5788 30.1269C37.0821 30.9062 35.4593 31.3008 33.8246 31.3008H33.8256ZM34.0915 29.3606C33.7547 29.3606 33.417 29.3405 33.0782 29.2995C28.4127 28.7385 25.0657 24.4202 25.6171 19.6742C25.884 17.3753 27.0154 15.3199 28.8026 13.8865C30.5899 12.4531 32.8183 11.813 35.0792 12.0854C38.2548 12.4671 40.9283 14.5967 42.0558 17.6428C42.107 17.7821 42.0381 17.9373 41.9012 17.9904C41.7643 18.0425 41.6117 17.9724 41.5595 17.8331C40.501 14.9763 37.9939 12.9789 35.0161 12.6213C32.8961 12.3659 30.8065 12.9669 29.1306 14.3112C27.4546 15.6554 26.3941 17.5837 26.143 19.7393C25.626 24.1898 28.7642 28.2397 33.1403 28.7656C34.7788 28.9629 36.4105 28.6484 37.858 27.8561C39.274 27.0818 40.4153 25.9098 41.1577 24.4673C41.2257 24.3351 41.3862 24.285 41.5152 24.3541C41.6452 24.4233 41.6944 24.5865 41.6265 24.7178C40.8338 26.2553 39.6177 27.5044 38.1081 28.3308C36.8634 29.012 35.4908 29.3626 34.0905 29.3626L34.0915 29.3606Z" fill="#121212"/>
<path d="M38.1829 18.6205C37.8816 19.1815 37.2957 19.5621 36.6231 19.5621C35.6414 19.5621 34.8467 18.7528 34.8467 17.7551C34.8467 17.0839 35.2071 16.498 35.7408 16.1865C35.151 15.924 34.4991 15.7767 33.8148 15.7767C31.157 15.7767 29.0025 17.9684 29.0025 20.672C29.0025 23.3756 31.157 25.5673 33.8148 25.5673C36.4725 25.5673 38.627 23.3756 38.627 20.672C38.627 19.9388 38.4675 19.2446 38.1839 18.6205H38.1829Z" fill="#121212"/>
<path d="M37.1543 18.3214C37.5084 18.3214 37.6753 18.1077 37.6753 17.8207C37.6753 17.4839 37.4911 17.3257 37.1543 17.3257H36.8693V16.9069H37.5947V16.6082H36.8693V16.4003H36.708V16.6082H36.3827C36.0488 16.6082 35.8674 16.8132 35.8674 17.0856C35.8674 17.3697 36.0632 17.5717 36.3798 17.5717H36.708V18.0169H35.8904V18.3214H36.708V18.5294H36.8693V18.3214H37.1543ZM36.8693 18.0169V17.5717H37.1543C37.3097 17.5717 37.3961 17.6449 37.3961 17.7972C37.3961 17.9319 37.3126 18.0169 37.1543 18.0169H36.8693ZM36.708 17.3257H36.3827C36.256 17.3257 36.1726 17.2467 36.1726 17.1149C36.1726 16.9889 36.2503 16.9069 36.3827 16.9069H36.708V17.3257Z" fill="#121212"/>
</svg>
